<?xml version="1.0" standalone="no"?>
<!DOCTYPE svg PUBLIC "-//W3C//DTD SVG 20010904//EN"
 "http://www.w3.org/TR/2001/REC-SVG-20010904/DTD/svg10.dtd">
<svg version="1.0" xmlns="http://www.w3.org/2000/svg"
 width="500.000000pt" height="500.000000pt" viewBox="0 0 500.000000 500.000000"
 preserveAspectRatio="xMidYMid meet">

<g transform="translate(0.000000,500.000000) scale(0.100000,-0.100000)"
fill="#000000" stroke="none">
<path d="M925 3290 c-12 -19 7 -30 52 -30 25 0 61 -7 80 -16 63 -31 67 -45 71
-266 l4 -198 169 0 169 0 0 188 c0 158 3 192 18 222 23 46 72 70 145 70 50 0
57 2 57 20 0 20 -7 20 -379 20 -243 0 -382 -4 -386 -10z"/>
<path d="M2590 3281 c0 -15 10 -20 48 -26 40 -6 55 -15 105 -65 l57 -59 0
-176 0 -175 40 0 40 0 0 121 0 121 98 -121 97 -121 213 0 c118 0 212 4 210 8
-1 5 -93 122 -203 260 l-200 252 -252 0 c-241 0 -253 -1 -253 -19z"/>
<path d="M3590 3281 c0 -15 10 -19 51 -24 64 -8 108 -33 134 -77 18 -31 20
-56 23 -217 l4 -183 39 0 39 0 0 168 c0 92 5 183 10 203 16 56 53 87 121 100
47 9 59 15 59 30 0 18 -12 19 -240 19 -227 0 -240 -1 -240 -19z"/>
<path d="M1202 2598 l-2 -88 35 0 c19 0 35 5 35 10 0 6 -13 10 -30 10 l-29 0
-4 78 -3 77 -2 -87z"/>
<path d="M1374 2595 c0 -49 1 -71 3 -48 2 23 2 64 0 90 -2 26 -3 8 -3 -42z"/>
<path d="M1490 2595 c0 -95 17 -117 22 -29 l3 57 39 -57 c21 -31 40 -56 42
-56 2 0 4 38 4 85 0 95 -17 117 -22 28 l-3 -58 -39 58 c-21 31 -40 57 -42 57
-2 0 -4 -38 -4 -85z"/>
<path d="M1710 2596 l0 -86 34 0 c51 0 90 37 90 84 0 47 -29 76 -83 83 l-41 6
0 -87z m87 42 c44 -41 15 -108 -47 -108 l-30 0 0 65 c0 64 0 65 27 65 15 0 37
-10 50 -22z"/>
<path d="M1930 2595 l0 -85 50 0 c28 0 50 5 50 10 0 6 -18 10 -40 10 -38 0
-40 2 -40 29 0 28 3 30 43 34 l42 4 -42 1 c-41 2 -43 4 -43 32 0 28 2 30 40
30 22 0 40 5 40 10 0 6 -22 10 -50 10 l-50 0 0 -85z"/>
<path d="M2140 2596 l0 -86 41 0 c24 0 38 4 34 10 -3 6 -17 10 -31 10 -23 0
-24 2 -24 69 0 39 -4 73 -10 76 -6 4 -10 -25 -10 -79z"/>
<path d="M2351 2659 c-5 -13 -16 -42 -26 -64 -31 -73 -35 -85 -26 -85 4 0 13
11 19 25 9 19 19 25 45 25 26 0 36 -6 45 -25 6 -14 16 -25 21 -25 8 0 -52 156
-64 169 -3 2 -9 -7 -14 -20z m39 -76 c0 -7 -11 -13 -25 -13 -28 0 -30 6 -14
47 l11 28 13 -25 c8 -14 14 -31 15 -37z"/>
<path d="M2532 2595 c1 -88 2 -89 7 -26 l6 64 39 -57 c21 -31 43 -59 47 -62 5
-3 9 33 9 80 0 98 -17 118 -22 26 l-3 -60 -42 62 -43 62 2 -89z"/>
<path d="M2740 2595 c0 -50 4 -85 10 -85 6 0 10 35 10 85 0 50 -4 85 -10 85
-6 0 -10 -35 -10 -85z"/>
<path d="M3000 2595 c0 -95 17 -117 22 -27 l3 57 39 -57 c21 -32 40 -58 42
-58 2 0 3 39 2 88 l-1 87 -6 -65 -6 -65 -44 63 c-24 34 -45 62 -47 62 -2 0 -4
-38 -4 -85z"/>
<path d="M3200 2670 c0 -5 9 -10 20 -10 18 0 20 -7 20 -75 0 -43 4 -75 10 -75
6 0 10 32 10 75 0 68 2 75 20 75 11 0 20 5 20 10 0 6 -22 10 -50 10 -27 0 -50
-4 -50 -10z"/>
<path d="M3390 2612 c0 -75 16 -102 59 -102 52 0 61 15 59 98 l-2 77 -3 -65
c-5 -76 -15 -92 -57 -88 l-31 3 -3 73 c-4 92 -22 95 -22 4z"/>
<path d="M3622 2598 l-2 -88 35 0 c19 0 35 5 35 10 0 6 -13 10 -30 10 l-29 0
-4 78 -3 77 -2 -87z"/>
<path d="M3794 2595 c0 -49 1 -71 3 -48 2 23 2 64 0 90 -2 26 -3 8 -3 -42z"/>
<path d="M1128 2193 c-3 -131 -8 -206 -16 -221 -20 -36 -59 -55 -125 -61 -48
-5 -63 -10 -65 -24 -3 -16 30 -17 635 -15 l638 3 22 205 c11 113 23 224 26
248 4 38 2 42 -17 42 -18 0 -26 -10 -40 -57 -54 -175 -150 -302 -256 -339 -46
-16 -84 -19 -227 -19 l-173 0 -27 28 -28 27 -3 190 -4 190 -168 0 -168 0 -4
-197z"/>
<path d="M2798 2208 c-3 -162 -5 -187 -23 -218 -26 -44 -70 -69 -134 -77 -41
-5 -51 -9 -51 -24 0 -18 13 -19 256 -19 238 0 255 1 252 18 -2 12 -17 19 -55
23 -61 8 -107 32 -137 72 -19 26 -21 44 -24 218 l-3 189 -39 0 -38 0 -4 -182z"/>
<path d="M3409 2373 c6 -10 104 -133 219 -273 140 -171 215 -256 230 -258 l22
-3 0 275 0 276 -240 0 c-226 0 -240 -1 -231 -17z"/>
</g>
</svg>
